<!-- icon666.com - MILLIONS vector ICONS FREE --><svg viewBox="0 0 32 32" xmlns="http://www.w3.org/2000/svg"><g id="Layer_55" data-name="Layer 55"><path d="m24 5h-4a3 3 0 0 0 -3-3h-3a3 3 0 0 0 -3 3h-3a2.81 2.81 0 0 0 -3 2.57v2.57a.94.94 0 0 0 1 .86h20a.94.94 0 0 0 1-.86v-2.57a2.81 2.81 0 0 0 -3-2.57zm-11 0a1 1 0 0 1 1-1h3a1 1 0 0 1 1 1zm-7 22a3 3 0 0 0 3 3h14a3 3 0 0 0 3-3v-15h-20zm14-12a1 1 0 0 1 2 0v10a1 1 0 0 1 -2 0zm-5 0a1 1 0 0 1 2 0v10a1 1 0 0 1 -2 0zm-5 0a1 1 0 0 1 2 0v10a1 1 0 0 1 -2 0z"></path></g></svg>