<?xml version="1.0" encoding="iso-8859-1"?>
<!-- Uploaded to: SVG Repo, www.svgrepo.com, Generator: SVG Repo Mixer Tools -->
<!DOCTYPE svg PUBLIC "-//W3C//DTD SVG 1.1//EN" "http://www.w3.org/Graphics/SVG/1.1/DTD/svg11.dtd">
<svg fill="#000000" height="800px" width="800px" version="1.1" id="Capa_1" xmlns="http://www.w3.org/2000/svg" xmlns:xlink="http://www.w3.org/1999/xlink" 
	 viewBox="0 0 299.163 299.163" xml:space="preserve">
<g>
	<path d="M265.99,172.441l-0.143-46.723l-22.182-12.244l-0.058-95.682L213.74,0l-42.193,25.263c-0.16,0.076-0.323,0.142-0.479,0.23
		c-2.351,1.332-3.804,3.824-3.804,6.526v2.25l-13.829-8.524L106.83,53.748v17.778l-14.3-8.912l-46.752,28.04v87.271l-12.605,7.754
		v46.742l12.605,7.788v40.305l30.282,18.648l46.204-28.692l-0.007-17.466l14.747,9.227l46.315-28.729l-0.001-6.077l14.35,9.103
		l46.078-28.842l-0.012-21.789L265.99,172.441z M250.887,143.478l0.132,20.47l-45.991,27.86l0.023-11.373l0.02-9.467
		L250.887,143.478z M228.668,116.282l-23.851,14.393l0.041-80.819l23.751-14.357L228.668,116.282z M168.194,61.397l0.032,14.289
		l-23.829,14.38l0.005-2.833l0.018-11.463l19.861-12.007L168.194,61.397z M107.125,98.293l0.056,61.843l-23.848,14.392l0.038-61.875
		l20.819-12.585L107.125,98.293z M68.565,224.445l-0.023,12.148l-20.369-12.518v-20.83l20.41,12.517L68.565,224.445z
		 M83.474,276.727v-22.487l23.406-14.18c0.06,0.567,0.188,1.118,0.369,1.649l0.017,20.299L83.474,276.727z M129.525,208.803
		L83.542,236.66l0.041-20.84l45.818-27.49l0.124,19.447V208.803z M143.774,140.509l0.02-9.515l45.816-27.49l0.131,20.469
		l-45.99,27.86L143.774,140.509z M144.525,239.842v-26.309c0.014-0.19,0.035-0.38,0.034-0.573l-0.034-5.275v-38.783l23.764-14.395
		l0.029,70.616L144.525,239.842z M190.042,184.482l-0.004,1.683c-0.046,0.337-0.078,0.679-0.078,1.028v4.506l-6.656-4.091
		l-0.009-20.854l6.774,4.154L190.042,184.482z M204.96,213.874v-4.488l23.785-14.408l0.005,4.179L204.96,213.874z"/>
</g>
</svg>